<svg xmlns="http://www.w3.org/2000/svg" viewBox="0 0 17 17" height="17" width="17"><title>castle-JP-11.svg</title><rect fill="none" x="0" y="0" width="17" height="17"></rect><rect x="1" y="1" rx="4" ry="4" width="15" height="15" stroke="#ffffff" style="stroke-linejoin:round;stroke-miterlimit:4;" fill="#ffffff" stroke-width="2"></rect><rect x="1" y="1" width="15" height="15" rx="4" ry="4" fill="#c773c7"></rect><path fill="#ffffff" transform="translate(3 3)" d="M1.75,9.5029a.75.75,0,0,1-.75-.75V4.748a.75.75,0,0,1,.75-.75L3.001,3.997V2.247a.75.75,0,0,1,.75-.75h3.5a.75.75,0,0,1,.75.75v1.75l1.25.001a.75.75,0,0,1,.75.75v4a.75.75,0,0,1-1.5,0V5.498l-1.25-.001a.75.75,0,0,1-.75-.75V2.997h-2v1.75a.75.75,0,0,1-.75.75L2.5,5.498V8.7529A.75.75,0,0,1,1.75,9.5029Z"></path></svg>