<svg xmlns="http://www.w3.org/2000/svg" viewBox="0 0 17 17" height="17" width="17"><title>blood-bank-11.svg</title><rect fill="none" x="0" y="0" width="17" height="17"></rect><rect x="1" y="1" rx="4" ry="4" width="15" height="15" stroke="#ffffff" style="stroke-linejoin:round;stroke-miterlimit:4;" fill="#ffffff" stroke-width="2"></rect><rect x="1" y="1" width="15" height="15" rx="4" ry="4" fill="#ed5a5a"></rect><path fill="#ffffff" transform="translate(3 3)" d="M8.40515,4.64435H8.40643L5.5,1,2.59308,4.64435H2.59485A3.37087,3.37087,0,0,0,2,6.55859,3.464,3.464,0,0,0,5.5,9.98822,3.464,3.464,0,0,0,9,6.55859,3.37087,3.37087,0,0,0,8.40515,4.64435ZM8,7H6V9H5V7H3V6H5V4H6V6H8V7Z"></path></svg>