<svg width="17" height="17" viewBox="0 0 17 17" fill="none" xmlns="http://www.w3.org/2000/svg">
<path d="M9 8.5C10.933 8.5 12.5 6.933 12.5 5C12.5 3.067 10.933 1.5 9 1.5C7.067 1.5 5.5 3.067 5.5 5C5.5 6.933 7.067 8.5 9 8.5ZM10.5 5C10.5 5.82843 9.82843 6.5 9 6.5C8.17157 6.5 7.5 5.82843 7.5 5C7.5 4.17157 8.17157 3.5 9 3.5C9.82843 3.5 10.5 4.17157 10.5 5Z" fill="#415CBD" stroke="white"/>
<path d="M8.46548 6.5H7.96548V7V15V15.5H8.46548H9.53452H10.0345V15V7V6.5H9.53452H8.46548Z" fill="#415CBD" stroke="white"/>
<path d="M6.5 15V15.5H7H11H11.5V15V13V12.5H11L7 12.5H6.5V13L6.5 15Z" fill="#415CBD" stroke="white"/>
<path fill-rule="evenodd" clip-rule="evenodd" d="M12 5C12 6.65685 10.6569 8 9 8C7.34315 8 6 6.65685 6 5C6 3.34315 7.34315 2 9 2C10.6569 2 12 3.34315 12 5ZM9 7C10.1046 7 11 6.10457 11 5C11 3.89543 10.1046 3 9 3C7.89543 3 7 3.89543 7 5C7 6.10457 7.89543 7 9 7Z" fill="#415CBD"/>
<path d="M9 7V15" stroke="#415CBD" stroke-width="1.06904"/>
<path d="M7 14L11 14" stroke="#415CBD" stroke-width="2"/>
</svg>
