<svg width="19" height="19" viewBox="0 0 19 19" fill="none" xmlns="http://www.w3.org/2000/svg">
<path d="M9.5 4C12.5 4 15 6.5 15 9.5C15 12.5 12.5 15 9.5 15C6.5 15 4 12.5 4 9.5C4 6.5 6.5 4 9.5 4ZM9.5 5.2C7.1 5.2 5.2 7.1 5.2 9.5C5.2 11.9 7.1 13.8 9.5 13.8C11.9 13.8 13.8 11.9 13.8 9.5C13.8 7.1 11.9 5.2 9.5 5.2Z" fill="white" stroke="white" stroke-width="2" stroke-linejoin="round"/>
<path d="M9.5 4C12.5 4 15 6.5 15 9.5C15 12.5 12.5 15 9.5 15C6.5 15 4 12.5 4 9.5C4 6.5 6.5 4 9.5 4Z" fill="black"/>
<path d="M9.50001 13.8C11.8748 13.8 13.8 11.8748 13.8 9.5C13.8 7.12517 11.8748 5.2 9.50001 5.2C7.12519 5.2 5.20001 7.12517 5.20001 9.5C5.20001 11.8748 7.12519 13.8 9.50001 13.8Z" fill="white"/>
</svg>
