<svg width="17" height="17" viewBox="0 0 17 17" fill="none" xmlns="http://www.w3.org/2000/svg">
<path d="M8.84736 11.3296L8.85246 11.3247L8.85743 11.3196L11.0989 9.02821C11.1674 8.95913 11.2219 8.87735 11.2592 8.78745C11.297 8.69633 11.3164 8.59865 11.3164 8.5C11.3164 8.40135 11.297 8.30367 11.2592 8.21255C11.2217 8.12214 11.1668 8.03995 11.0977 7.97062L8.84465 5.69056L8.84475 5.69046L8.83636 5.68236C8.75856 5.60722 8.66988 5.54593 8.57412 5.5H11.5V11.5H8.6093C8.69582 11.4556 8.77615 11.3984 8.84736 11.3296ZM7.5 5.5H7.70916C7.60821 5.54842 7.51519 5.61389 7.43454 5.69454C7.24913 5.87995 7.14396 6.13076 7.14168 6.39295C7.1394 6.65515 7.2402 6.90775 7.42236 7.09636L7.42235 7.09636L7.42375 7.0978L7.81535 7.5H4.5C4.23478 7.5 3.98043 7.60536 3.79289 7.79289C3.60536 7.98043 3.5 8.23478 3.5 8.5C3.5 8.76522 3.60536 9.01957 3.79289 9.20711C3.98043 9.39464 4.23478 9.5 4.5 9.5H7.83056L7.43336 9.91564C7.43299 9.91603 7.43262 9.91641 7.43225 9.91679C7.25079 10.1053 7.15041 10.3574 7.15268 10.619C7.15496 10.8812 7.26013 11.1321 7.44554 11.3175C7.51971 11.3916 7.60434 11.453 7.69599 11.5H7.5C7.23478 11.5 6.98043 11.6054 6.79289 11.7929C6.60536 11.9804 6.5 12.2348 6.5 12.5C6.5 12.7652 6.60536 13.0196 6.79289 13.2071C6.98043 13.3946 7.23478 13.5 7.5 13.5H12C12.3978 13.5 12.7794 13.342 13.0607 13.0607C13.342 12.7794 13.5 12.3978 13.5 12V5C13.5 4.60218 13.342 4.22064 13.0607 3.93934C12.7794 3.65804 12.3978 3.5 12 3.5H7.5C7.23478 3.5 6.98043 3.60536 6.79289 3.79289C6.60536 3.98043 6.5 4.23478 6.5 4.5C6.5 4.76522 6.60536 5.01957 6.79289 5.20711C6.98043 5.39464 7.23478 5.5 7.5 5.5Z" fill="white" stroke="white"/>
<path d="M7.793 10.263C7.70192 10.3573 7.65152 10.4836 7.65266 10.6147C7.6538 10.7458 7.70639 10.8712 7.79909 10.9639C7.89179 11.0566 8.0172 11.1092 8.1483 11.1103C8.2794 11.1115 8.4057 11.0611 8.5 10.97L10.743 8.677C10.7663 8.65378 10.7848 8.62619 10.7974 8.59582C10.81 8.56544 10.8164 8.53288 10.8164 8.5C10.8164 8.46712 10.81 8.43456 10.7974 8.40418C10.7848 8.37381 10.7663 8.34622 10.743 8.323L8.489 6.042C8.3947 5.95092 8.2684 5.90052 8.1373 5.90166C8.0062 5.9028 7.88079 5.95539 7.78809 6.04809C7.69539 6.14079 7.6428 6.2662 7.64166 6.3973C7.64052 6.5284 7.69092 6.6547 7.782 6.749L9 8H4.5C4.36739 8 4.24021 8.05268 4.14645 8.14645C4.05268 8.24021 4 8.36739 4 8.5C4 8.63261 4.05268 8.75979 4.14645 8.85355C4.24021 8.94732 4.36739 9 4.5 9H9L7.793 10.263ZM12 4H7.5C7.36739 4 7.24021 4.05268 7.14645 4.14645C7.05268 4.24021 7 4.36739 7 4.5C7 4.63261 7.05268 4.75979 7.14645 4.85355C7.24021 4.94732 7.36739 5 7.5 5H11.5C11.6326 5 11.7598 5.05268 11.8536 5.14645C11.9473 5.24021 12 5.36739 12 5.5V11.5C12 11.6326 11.9473 11.7598 11.8536 11.8536C11.7598 11.9473 11.6326 12 11.5 12H7.5C7.36739 12 7.24021 12.0527 7.14645 12.1464C7.05268 12.2402 7 12.3674 7 12.5C7 12.6326 7.05268 12.7598 7.14645 12.8536C7.24021 12.9473 7.36739 13 7.5 13H12C12.2652 13 12.5196 12.8946 12.7071 12.7071C12.8946 12.5196 13 12.2652 13 12V5C13 4.73478 12.8946 4.48043 12.7071 4.29289C12.5196 4.10536 12.2652 4 12 4Z" fill="#415CBD"/>
</svg>
