<svg width="21" height="21" viewBox="0 0 21 21" fill="none" xmlns="http://www.w3.org/2000/svg">
<path d="M9.2012 12.2847L9.20113 12.2846L9.19436 12.2916C9.0122 12.4802 8.9114 12.7328 8.91368 12.995C8.91596 13.2572 9.02113 13.5081 9.20654 13.6935C9.39195 13.8789 9.64276 13.984 9.90495 13.9863C10.1672 13.9886 10.4198 13.8878 10.6084 13.7056L10.6084 13.7057L10.6152 13.6989L13.2811 11.023C13.2814 11.0227 13.2816 11.0225 13.2819 11.0222C13.3514 10.9527 13.4065 10.8702 13.4442 10.7795C13.482 10.6883 13.5014 10.5907 13.5014 10.492C13.5014 10.3933 13.482 10.2957 13.4442 10.2045C13.4065 10.1137 13.3513 10.0312 13.2818 9.96165C13.2815 9.96143 13.2813 9.96122 13.2811 9.961L10.6151 7.28604L10.6152 7.28598L10.6084 7.27936C10.4198 7.0972 10.1672 6.9964 9.90495 6.99868C9.64276 7.00096 9.39195 7.10613 9.20654 7.29154C9.02113 7.47695 8.91596 7.72776 8.91368 7.98995C8.9114 8.25215 9.0122 8.50475 9.19436 8.69336L9.19432 8.6934L9.19959 8.6987L9.99702 9.5H4.5C4.23478 9.5 3.98043 9.60536 3.79289 9.79289C3.60536 9.98043 3.5 10.2348 3.5 10.5C3.5 10.7652 3.60536 11.0196 3.79289 11.2071C3.98043 11.3946 4.23478 11.5 4.5 11.5H9.98925L9.2012 12.2847ZM15 3.5H8.5C8.23478 3.5 7.98043 3.60536 7.79289 3.79289C7.60536 3.98043 7.5 4.23478 7.5 4.5C7.5 4.76522 7.60536 5.01957 7.79289 5.20711C7.98043 5.39464 8.23478 5.5 8.5 5.5H14.5V15.5H8.25C7.98478 15.5 7.73043 15.6054 7.54289 15.7929C7.35536 15.9804 7.25 16.2348 7.25 16.5C7.25 16.7652 7.35536 17.0196 7.54289 17.2071C7.73043 17.3946 7.98478 17.5 8.25 17.5H15C15.3978 17.5 15.7794 17.342 16.0607 17.0607C16.342 16.7794 16.5 16.3978 16.5 16V5C16.5 4.60218 16.342 4.22064 16.0607 3.93934C15.7794 3.65804 15.3978 3.5 15 3.5Z" fill="#415CBD" stroke="white"/>
</svg>
