<svg xmlns="http://www.w3.org/2000/svg" viewBox="0 0 17 17" height="17" width="17"><title>hospital-JP-11.svg</title><rect fill="none" x="0" y="0" width="17" height="17"></rect><rect x="1" y="1" rx="4" ry="4" width="15" height="15" stroke="#ffffff" style="stroke-linejoin:round;stroke-miterlimit:4;" fill="#ffffff" stroke-width="2"></rect><rect x="1" y="1" width="15" height="15" rx="4" ry="4" fill="#ed5a5a"></rect><path fill="#ffffff" transform="translate(3 3)" d="M9.4962,1.75H1.5037A.5052.5052,0,0,0,1,2.2569H1v4.53a.5071.5071,0,0,0,.2991.4631L5.2954,9.2063a.5011.5011,0,0,0,.4091,0L9.7012,7.2134A.5071.5071,0,0,0,10,6.75V2.2571a.5053.5053,0,0,0-.5038-.507ZM7.75,6H6.25V7.5H4.75V6H3.25V4.5h1.5V3h1.5V4.5h1.5Z"></path></svg>