<svg xmlns="http://www.w3.org/2000/svg" viewBox="0 0 29 29" height="29" width="29"><title>oneway.svg</title><rect fill="none" x="0" y="0" width="29" height="29"></rect><path fill="#ffffff" transform="translate(4 4)" d="M15.018,4.85l-4.282-4.633c-0.08-0.08-0.178-0.12-0.29-0.12c-0.104,0-0.197,0.04-0.277,0.12L5.946,4.85
		c-0.104,0.129-0.125,0.27-0.06,0.422c0.064,0.153,0.181,0.229,0.35,0.229h3.392v15.055c0,0.113,0.036,0.205,0.109,0.277
		c0.072,0.072,0.164,0.108,0.277,0.108h0.937c0.112,0,0.205-0.036,0.276-0.108c0.073-0.072,0.109-0.164,0.109-0.277V5.501h3.392
		c0.161,0,0.277-0.076,0.35-0.229C15.142,5.118,15.122,4.979,15.018,4.85z" style="stroke-linejoin:round;stroke-miterlimit:4;" stroke="#ffffff" stroke-width="2"></path><path fill="#000000" transform="translate(4 4)" d="M15.018,4.85l-4.282-4.633c-0.08-0.08-0.178-0.12-0.29-0.12c-0.104,0-0.197,0.04-0.277,0.12L5.946,4.85
		c-0.104,0.129-0.125,0.27-0.06,0.422c0.064,0.153,0.181,0.229,0.35,0.229h3.392v15.055c0,0.113,0.036,0.205,0.109,0.277
		c0.072,0.072,0.164,0.108,0.277,0.108h0.937c0.112,0,0.205-0.036,0.276-0.108c0.073-0.072,0.109-0.164,0.109-0.277V5.501h3.392
		c0.161,0,0.277-0.076,0.35-0.229C15.142,5.118,15.122,4.979,15.018,4.85z"></path></svg>