<svg xmlns="http://www.w3.org/2000/svg" viewBox="0 0 17 17" height="17" width="17"><title>fitness-centre-11.svg</title><rect fill="none" x="0" y="0" width="17" height="17"></rect><rect x="1" y="1" rx="4" ry="4" width="15" height="15" stroke="#ffffff" style="stroke-linejoin:round;stroke-miterlimit:4;" fill="#ffffff" stroke-width="2"></rect><rect x="1" y="1" width="15" height="15" rx="4" ry="4" fill="#37d1e5"></rect><path fill="#ffffff" transform="translate(3 3)" d="M7,6H4V5H7ZM2,3V4H1V5A.5.5,0,0,0,1,6V7H2V8H3.5V3Zm8,2V4H9V3H7.5V8H9V7h1V6a.5.5,0,0,0,0-1Z"></path></svg>